

[url]http://www.imdb.com/title/tt1428538/[/url]


[b] Plot:In this spin on the fairy tale, Hansel & Gretel are now bounty hunters who track and kill witches all over the world. As the fabled Blood Moon approaches, the siblings encounter a new form of evil that might hold a secret to their past. 



Director:
 Tommy Wirkola

Writer:
 Tommy Wirkola

Stars:
 Jeremy Renner, Gemma Arterton, Peter Stormare

Genres:
 Action | Fantasy | Horror 

Country:
Germany|USA

Language:
English [/b]


Format                                   : AVI
Format/Info                              : Audio Video Interleave
File size                                : 694 MiB
Duration                                 : 1h 20mn
Overall bit rate                         : 1 210 Kbps
Writing application                      : Lavf54.59.103

Video
ID                                       : 0
Format                                   : MPEG-4 Visual
Format profile                           : Simple@L3
Format settings, BVOP                    : No
Format settings, QPel                    : No
Format settings, GMC                     : No warppoints
Format settings, Matrix                  : Default (H.263)
Codec ID                                 : XVID
Codec ID/Hint                            : XviD
Duration                                 : 1h 20mn
Bit rate                                 : 1 070 Kbps
Width                                    : 640 pixels
Height                                   : 320 pixels
Display aspect ratio                     : 1.957
Frame rate                               : 29.970 fps
Color space                              : YUV
Chroma subsampling                       : 4:2:0
Bit depth                                : 8 bits
Scan type                                : Progressive
Compression mode                         : Lossy
Bits/(Pixel*Frame)                       : 0.174
Stream size                              : 614 MiB (88%)
Writing library                          : XviD 64

Audio
ID                                       : 1
Format                                   : AC-3
Format/Info                              : Audio Coding 3
Mode extension                           : CM (complete main)
Format settings, Endianness              : Big
Codec ID                                 : 2000
Duration                                 : 1h 20mn
Bit rate mode                            : Constant
Bit rate                                 : 128 Kbps
Channel(s)                               : 2 channels
Channel positions                        : Front: L R
Sampling rate                            : 48.0 KHz
Bit depth                                : 16 bits
Compression mode                         : Lossy
Stream size                              : 73.4 MiB (11%)
Alignment                                : Aligned on interleaves
Interleave, duration                     : 32 ms (0.96 video frame)


 
http://www.shotpix.com/images/23616120386587518241.png 
http://www.shotpix.com/images/04986195390549414547.png 
http://www.shotpix.com/images/65131038210257897598.png 
http://www.shotpix.com/images/89101902017902207306.png
